<svg xmlns="http://www.w3.org/2000/svg" width="48" height="48" viewBox="0 0 48 48">
    <g fill="none" fill-rule="evenodd">
        <path d="M0 0h48v48H0z"/>
        <path d="M0 0h48v48H0z"/>
        <path fill="#FFDA2D" fill-rule="nonzero" d="M34 4a4 4 0 0 1 4 4v20a4 4 0 0 1-4 4h-8v4h2a2 2 0 0 1 2 2h14v4H30a2 2 0 0 1-2 2h-8a2 2 0 0 1-2-2H4v-4h14a2 2 0 0 1 2-2h2v-4h-8c-2.22 0-4-1.8-4-4V8a4 4 0 0 1 4-4h20z"/>
        <path fill="#FFF" d="M24.94 24.09V26h-2.67v-1.93c-1.71-.36-3.16-1.46-3.27-3.4h1.96c.1 1.05.82 1.87 2.65 1.87 1.96 0 2.4-.98 2.4-1.59 0-.83-.44-1.61-2.67-2.14-2.48-.6-4.18-1.62-4.18-3.67 0-1.72 1.39-2.84 3.11-3.21V10h2.67v1.95c1.86.45 2.79 1.86 2.85 3.39h-1.96c-.05-1.11-.64-1.87-2.22-1.87-1.5 0-2.4.68-2.4 1.64 0 .84.65 1.39 2.67 1.91s4.18 1.39 4.18 3.91c-.01 1.83-1.38 2.83-3.12 3.16z"/>
    </g>
</svg>
