<?xml version="1.0" standalone="no"?>
<!DOCTYPE svg PUBLIC "-//W3C//DTD SVG 20010904//EN"
 "http://www.w3.org/TR/2001/REC-SVG-20010904/DTD/svg10.dtd">
<svg version="1.0" xmlns="http://www.w3.org/2000/svg"
 width="260.000000pt" height="260.000000pt" viewBox="0 0 260.000000 260.000000"
 preserveAspectRatio="xMidYMid meet">
<metadata>
Created by potrace 1.11, written by Peter Selinger 2001-2013
</metadata>
<g transform="translate(0.000000,260.000000) scale(0.100000,-0.100000)"
fill="#000000" stroke="none">
<path d="M0 1300 l0 -1300 1300 0 1300 0 0 1300 0 1300 -1300 0 -1300 0 0
-1300z m1134 294 c87 -255 172 -484 185 -497 10 -10 64 131 181 466 l88 252
120 3 121 3 -28 -83 c-80 -235 -243 -646 -333 -841 l-41 -88 -111 3 -110 3
-53 116 c-103 229 -343 844 -343 880 0 5 54 9 124 9 l123 0 77 -226z"/>
</g>
</svg>
